<svg width="24" height="24" viewBox="0 0 24 24" fill="none" xmlns="http://www.w3.org/2000/svg">
  <!-- Key Icon -->
  <path
    d="M4.5 7C4.5 5.067 6.067 3.5 8 3.5C9.933 3.5 11.5 5.067 11.5 7C11.5 8.525 10.4404 9.82203 9 10.2136V11H8V9H7V11H6V9H5V10.2136C3.55965 9.82203 2.5 8.525 2.5 7C2.5 5.067 4.067 3.5 6 3.5C6.82843 3.5 7.5 4.17157 7.5 5C7.5 5.82843 6.82843 6.5 6 6.5C5.17157 6.5 4.5 5.82843 4.5 5Z"
    fill="#637381"
  />
  <!-- Car Icon -->
  <path
    d="M5 12L6.5 8.6C6.9 7.6 7.8 7 9 7H18C19.2 7 20.1 7.6 20.5 8.6L22 12H5Z"
    fill="#637381"
  />
  <path
    d="M3.5 15C3.5 14.4477 3.94772 14 4.5 14H19.5C20.0523 14 20.5 14.4477 20.5 15V16.5H3.5V15Z"
    fill="#637381"
    opacity="0.4"
  />
  <circle cx="8" cy="19" r="2" fill="#637381" />
  <circle cx="17" cy="19" r="2" fill="#637381" />
</svg>
